<?xml version="1.0" encoding="UTF-8" standalone="no"?>
<!-- Created with Inkscape (http://www.inkscape.org/) -->

<svg
   width="79.190834mm"
   height="80.778358mm"
   viewBox="0 0 79.190834 80.778357"
   version="1.1"
   id="svg1"
   xml:space="preserve"
   inkscape:version="1.4 (86a8ad7, 2024-10-11)"
   sodipodi:docname="EDP_Logo.svg"
   xmlns:inkscape="http://www.inkscape.org/namespaces/inkscape"
   xmlns:sodipodi="http://sodipodi.sourceforge.net/DTD/sodipodi-0.dtd"
   xmlns="http://www.w3.org/2000/svg"
   xmlns:svg="http://www.w3.org/2000/svg"><sodipodi:namedview
     id="namedview1"
     pagecolor="#ffffff"
     bordercolor="#000000"
     borderopacity="0.25"
     inkscape:showpageshadow="2"
     inkscape:pageopacity="0.0"
     inkscape:pagecheckerboard="0"
     inkscape:deskcolor="#d1d1d1"
     inkscape:document-units="mm"
     showguides="false"
     inkscape:zoom="0.48046124"
     inkscape:cx="1860.712"
     inkscape:cy="656.66067"
     inkscape:window-width="2048"
     inkscape:window-height="1257"
     inkscape:window-x="1264"
     inkscape:window-y="1096"
     inkscape:window-maximized="1"
     inkscape:current-layer="layer1"><sodipodi:guide
       position="-731.36623,111.34636"
       orientation="1,0"
       id="guide2"
       inkscape:locked="false" /><sodipodi:guide
       position="-763.64229,7.7644363"
       orientation="1,0"
       id="guide3"
       inkscape:locked="false" /><sodipodi:guide
       position="-607.68204,136.18883"
       orientation="1,0"
       id="guide4"
       inkscape:locked="false" /><sodipodi:guide
       position="-581.02562,142.52729"
       orientation="0,-1"
       id="guide5"
       inkscape:locked="false" /><sodipodi:guide
       position="-107.5359,176.27667"
       orientation="-1,0"
       id="guide6"
       inkscape:locked="false" /><sodipodi:guide
       position="-269.89277,163.82965"
       orientation="0,-1"
       id="guide7"
       inkscape:locked="false" /><inkscape:page
       x="-2.0164338e-05"
       y="3.7419404e-06"
       width="79.190834"
       height="80.778358"
       id="page1"
       margin="0"
       bleed="0" /></sodipodi:namedview><defs
     id="defs1" /><g
     inkscape:label="Capa 1"
     inkscape:groupmode="layer"
     id="layer1"
     transform="translate(-864.91936,-45.830719)"><path
       style="fill:#000000;stroke-width:0.613134"
       d="m 887.58961,126.33391 c -0.0541,-0.14113 -0.0985,-8.19882 -0.0985,-17.90598 0,-14.721676 0.0368,-17.679898 0.22162,-17.833317 0.15909,-0.132032 2.0928,-0.171965 6.854,-0.141529 l 6.63239,0.04237 v 2.352263 2.352256 l -3.8934,0.08112 -3.8934,0.08111 v 4.947857 4.94786 l 3.12283,0.0441 c 2.33121,0.0329 3.12498,0.0946 3.13133,0.24334 0.032,0.75022 -0.0365,4.41806 -0.0833,4.46492 -0.0319,0.0319 -1.33121,0.0505 -2.88735,0.0414 -1.55613,-0.009 -2.94976,0.0296 -3.09696,0.0861 -0.2417,0.0928 -0.26763,0.65745 -0.26763,5.82697 0,5.07013 0.0293,5.73552 0.25661,5.82274 0.14113,0.0541 1.92535,0.0985 3.96493,0.0985 2.03958,0 3.73089,0.0547 3.75847,0.12167 0.0276,0.0669 0.0279,1.12543 6.1e-4,2.35226 l -0.0494,2.23059 h -6.78711 c -6.03949,0 -6.79816,-0.0283 -6.88578,-0.25661 z m 17.86937,-17.30451 c -0.0231,-9.66878 -0.004,-17.794326 0.0414,-18.056765 l 0.0834,-0.477159 5.59448,0.01122 c 5.32886,0.01067 5.64538,0.02827 6.66656,0.370597 2.66127,0.892121 4.60085,3.024906 5.15548,5.66905 0.12233,0.583207 0.17956,4.443777 0.17792,12.004647 -0.002,11.83775 -0.0288,12.29543 -0.7915,13.78624 -0.83773,1.63751 -2.45617,3.07757 -4.29344,3.82023 -0.78039,0.31545 -1.2109,0.34073 -6.71308,0.39431 l -5.87922,0.0573 z m 10.43164,13.02776 c 0.68772,-0.72294 1.20033,-1.94764 1.44418,-3.45028 0.26315,-1.62156 0.20953,-18.40582 -0.0637,-19.937525 -0.28054,-1.572804 -0.58921,-2.463196 -1.46112,-3.285715 -0.39813,-0.375581 -0.78139,-0.594617 -1.53663,-0.578663 l -1.20128,0.02538 -2.13944,0.04519 -0.0414,13.910783 -0.0415,13.91079 h 2.21607 2.21606 z m 12.25522,4.27675 c -0.11856,-0.30895 -0.13402,-35.313524 -0.0158,-35.622384 0.0675,-0.176301 1.10462,-0.201126 5.63731,-0.134939 l 4.90096,0.07156 c 1.10369,0 1.68271,0.182732 2.67491,0.930013 0.9922,0.747275 2.09067,2.015009 2.59357,3.946281 0.23811,0.914421 0.22805,14.071029 -0.0117,15.200609 -0.35119,1.65515 -1.30554,3.09354 -2.67992,4.03914 -1.2461,0.85734 -1.87345,1.00569 -4.68114,1.10697 l -2.59559,0.0936 -0.0428,5.31287 -0.0428,5.31287 h -2.81936 c -2.42124,0 -2.83327,-0.0362 -2.91783,-0.25661 z m 9.9451,-15.24867 c 0.27345,-0.2301 0.66231,-0.75935 0.86412,-1.17613 0.36084,-0.74517 0.36694,-0.8576 0.36694,-6.76009 v -5.207461 c 0.1024,-0.667101 -0.0241,-1.5184 -0.64526,-2.188322 -0.62118,-0.669922 -0.7884,-0.97587 -3.07329,-0.923011 l -1.95932,0.04531 -0.0422,8.111244 c -0.0232,4.46119 -0.007,8.2025 0.0354,8.31403 0.0562,0.14658 0.61512,0.20278 2.01702,0.20278 1.84777,0 1.96282,-0.0197 2.43653,-0.41836 z M 889.11339,88.215839 c -0.13384,-0.02857 -0.58641,-0.09705 -1.00574,-0.152124 -0.5524,-0.07255 -0.78937,-0.18513 -0.86034,-0.408709 -0.17502,-0.551446 0.25766,-1.536304 1.32347,-3.012466 1.67421,-2.31881 1.71615,-2.430608 1.85144,-4.935001 0.0713,-1.319034 0.22163,-2.472351 0.3781,-2.899889 0.14287,-0.390419 0.25977,-0.76581 0.25977,-0.834205 0,-0.06839 -0.52926,-0.252917 -1.17613,-0.410051 -1.1835,-0.28748 -3.56327,-1.420134 -4.86383,-2.314941 -2.36657,-1.628243 -4.44312,-2.498862 -7.03771,-2.950644 -1.06047,-0.184657 -2.28564,-0.47947 -2.72259,-0.655139 -2.20458,-0.886321 -5.81117,-4.029906 -8.92573,-7.779873 l -1.41473,-1.703359 0.10867,-1.541136 c 0.1782,-2.527244 0.93879,-6.649408 1.37849,-7.470989 0.16846,-0.314782 6.46941,-5.413815 6.56804,-5.315187 0.0383,0.03832 -1.20272,1.379618 -2.75788,2.980651 l -2.82755,2.910968 -0.007,2.789328 c -0.007,2.670338 0.009,2.806484 0.35807,3.191268 0.51501,0.567112 6.13451,4.326099 7.52181,5.031478 0.63497,0.322852 1.32848,0.58591 1.54114,0.584568 0.43639,-0.0025 2.37051,-0.589798 3.71226,-1.126762 0.49073,-0.196387 2.68077,-1.253686 4.86675,-2.349552 5.18107,-2.59735 7.09861,-3.364129 9.89572,-3.95706 3.34652,-0.709389 4.04928,-0.756545 11.27463,-0.756545 h 6.97567 l 1.51981,-1.153513 c 0.83589,-0.634427 1.9159,-1.393566 2.40002,-1.686975 l 0.88022,-0.533463 3.6023,-0.01637 c 3.87297,-0.0176 3.99607,-0.0012 7.98236,1.066626 2.61582,0.700695 4.57575,1.379955 5.67645,1.9673 1.23517,0.659112 1.71642,1.454671 1.82863,3.022969 0.0996,1.392175 -0.21798,2.119075 -0.92587,2.119075 -0.63042,0 -0.98244,0.150132 -0.98244,0.418997 0,0.122136 -0.13635,0.446263 -0.303,0.720297 l -0.30299,0.498232 -0.33697,-0.716863 c -0.32762,-0.696973 -0.71837,-1.015926 -1.01786,-0.830827 -0.0809,0.04997 -0.33057,0.492071 -0.55485,0.9824 -0.22428,0.490329 -0.46712,0.85483 -0.53966,0.810004 -0.0725,-0.04482 -0.2291,-0.376108 -0.34794,-0.736189 -0.25002,-0.757557 -0.67058,-1.198057 -1.06902,-1.119717 -0.3086,0.0607 -0.42815,0.237191 -0.80619,1.19035 l -0.25735,0.648904 -0.43603,-0.892239 c -0.35261,-0.721535 -0.52159,-0.902078 -0.88325,-0.943673 -0.39398,-0.04531 -0.48502,0.03673 -0.7648,0.689456 -0.34006,0.793321 -0.57178,0.929676 -0.73043,0.429819 -0.40473,-1.275165 -1.42006,-1.389103 -1.85081,-0.207693 -0.13657,0.374545 -0.30154,0.680989 -0.36662,0.680989 -0.0651,0 -0.28569,-0.297787 -0.49025,-0.661755 -0.33643,-0.598608 -0.4187,-0.652582 -0.86206,-0.565603 -0.43651,0.08564 -0.8957,0.465564 -0.8957,0.7411 0,0.155534 0.64457,0.81071 0.79759,0.81071 0.0748,0 0.22638,-0.108856 0.3368,-0.2419 0.17177,-0.206975 0.26848,-0.148415 0.66978,0.405558 0.64043,0.884089 1.15103,0.883629 1.60256,-0.0012 0.18207,-0.356892 0.39264,-0.648897 0.46793,-0.648897 0.0753,0 0.26657,0.346757 0.42507,0.770567 0.41257,1.103199 0.54862,1.243074 0.89991,0.925158 0.1575,-0.142535 0.37603,-0.475633 0.48563,-0.740218 0.26689,-0.644324 0.49135,-0.525805 0.82321,0.434663 0.2228,0.644832 0.34834,0.799863 0.64764,0.799863 0.30143,0 0.4165,-0.145644 0.6117,-0.774216 0.13224,-0.425815 0.30754,-0.751843 0.38957,-0.724503 0.082,0.02735 0.31752,0.448047 0.52333,0.9349 l 0.37419,0.885187 0.29874,-0.524665 c 0.16431,-0.288565 0.37174,-0.524382 0.46097,-0.524039 0.0892,3.43e-4 0.28455,0.291888 0.43406,0.647874 0.24282,0.578136 0.33192,0.647254 0.83433,0.647254 0.6706,0 0.77001,0.190476 0.59602,1.141943 -0.0866,0.473449 -0.28282,0.845125 -0.58219,1.102635 -0.42909,0.369088 -0.52887,0.383527 -2.00248,0.289767 -0.853,-0.05426 -3.41242,-0.211078 -5.68763,-0.34845 -2.27521,-0.137367 -4.45206,-0.322711 -4.83745,-0.411879 -0.3854,-0.08916 -1.36221,-0.459966 -2.17069,-0.824002 l -1.46997,-0.661896 -0.70205,0.35062 c -0.38612,0.192843 -1.59935,1.014233 -2.69606,1.825311 -1.0967,0.811084 -2.38315,1.726001 -2.85875,2.033151 -0.80679,0.521022 -0.84741,0.577627 -0.60598,0.844401 0.55363,0.611754 2.05109,1.173764 3.6982,1.387963 1.06079,0.137949 1.71074,0.302759 1.88567,0.478152 0.4865,0.487809 0.2324,2.850225 -0.30657,2.850225 -0.0861,0 -0.15652,-0.173376 -0.15652,-0.385281 0,-0.640522 -0.19313,-1.399189 -0.35618,-1.399189 -0.0844,0 -0.4997,0.292004 -0.92295,0.648897 -1.09066,0.919658 -1.43582,0.852844 -0.90428,-0.175043 0.13749,-0.265861 0.21256,-0.543917 0.16684,-0.617898 -0.0457,-0.07398 -0.51138,-0.173345 -1.03479,-0.220801 -1.09152,-0.09898 -1.68829,-0.37148 -2.97367,-1.357895 l -0.91494,-0.70213 -1.37095,0.463413 c -1.40901,0.476269 -3.64525,0.928425 -3.80445,0.769225 -0.0492,-0.04923 -0.32289,-0.668279 -0.6081,-1.375627 -0.67823,-1.682095 -1.6207,-3.247149 -2.80091,-4.651151 -1.10157,-1.310438 -1.70381,-1.582314 -4.16896,-1.88205 -1.8088,-0.219925 -3.55679,0.0069 -5.08868,0.660443 -1.1801,0.503432 -2.79621,1.660243 -2.79621,2.001531 0,0.117605 0.2147,0.419537 0.47712,0.670946 l 0.47712,0.45711 0.61789,-0.477644 c 1.61187,-1.245997 2.88782,-1.673676 4.99334,-1.673676 1.70895,0 3.24239,0.347971 3.78844,0.85968 1.38285,1.295876 3.40226,4.924186 3.19882,5.747379 -0.15348,0.621037 -1.76124,2.138898 -2.88458,2.723269 -0.51201,0.266352 -0.97088,0.588314 -1.01971,0.715466 -0.0488,0.127151 -0.002,0.747661 0.10391,1.378913 0.40201,2.394537 -0.1131,3.362596 -3.373,6.338923 -2.14176,1.955449 -2.5362,2.445134 -2.15789,2.678946 0.12757,0.07884 1.07321,0.371369 2.10143,0.650057 2.75142,0.745748 3.81814,1.110955 4.40338,1.507542 1.10235,0.747017 1.01418,0.761518 -4.50765,0.741395 -2.84029,-0.01036 -5.27366,-0.04218 -5.4075,-0.07081 z m 36.25135,-33.484398 c 0.40042,-0.442456 0.21662,-1.103408 -0.34611,-1.244643 -0.54714,-0.137324 -0.93233,0.104876 -0.99514,0.625727 -0.0977,0.810035 0.79536,1.222122 1.34125,0.618916 z"
       id="path2-5-2"
       sodipodi:nodetypes="ssssccccccccsscsssssccssssccssscssscssssacccccccscsscssssscccsccssscsscccssscssssssssssscsssscssscsssscsscssssssscssssssscsssssssssssssssssssssscsssssssssscsssssssssssssscsssssssscsssssscsssssccssss" /></g></svg>
